<svg xmlns="http://www.w3.org/2000/svg" xmlns:xlink="http://www.w3.org/1999/xlink" width="200" height="20.566" viewBox="0 0 200 20.566">
  <defs>
    <clipPath id="clip-path">
      <path id="Clip_2" data-name="Clip 2" d="M0,0H200V20.566H0Z" transform="translate(0 0)" fill="none"/>
    </clipPath>
  </defs>
  <g id="ShawContract_Logo" transform="translate(-0.024 -0.322)">
    <path id="Clip_2-2" data-name="Clip 2" d="M0,0H200V20.566H0Z" transform="translate(0.024 0.322)" fill="none"/>
    <g id="ShawContract_Logo-2" data-name="ShawContract_Logo" transform="translate(0.024 0.322)" clip-path="url(#clip-path)">
      <path id="Fill_1" data-name="Fill 1" d="M172.874,20.567a7.783,7.783,0,0,1-5.451-2.09,7.565,7.565,0,0,1-2.248-5.609,7.411,7.411,0,0,1,2.293-5.486A7.883,7.883,0,0,1,172.9,5.31a7.792,7.792,0,0,1,4.864,1.559,6.191,6.191,0,0,1,2.356,4.172h-4.214a2.855,2.855,0,0,0-1.082-1.64,3.205,3.205,0,0,0-1.925-.607c-1.969,0-3.343,1.675-3.343,4.074a4.872,4.872,0,0,0,.945,3.045,3.027,3.027,0,0,0,2.4,1.17,2.942,2.942,0,0,0,2.979-2.276h4.242a6.5,6.5,0,0,1-2.455,4.228A7.743,7.743,0,0,1,172.874,20.567Zm-70.97,0a8.11,8.11,0,0,1-5.6-2.079,7.479,7.479,0,0,1-2.293-5.62,7.253,7.253,0,0,1,2.325-5.517,8.655,8.655,0,0,1,11.151-.01,7.261,7.261,0,0,1,2.315,5.528,7.47,7.47,0,0,1-2.3,5.609A8.1,8.1,0,0,1,101.9,20.567Zm0-11.772c-2.1,0-3.513,1.637-3.513,4.074,0,2.521,1.412,4.215,3.513,4.215,2.133,0,3.512-1.654,3.512-4.215a4.425,4.425,0,0,0-.976-2.953A3.251,3.251,0,0,0,101.9,8.794ZM83.164,20.567a9.814,9.814,0,0,1-6.88-2.7A10.206,10.206,0,0,1,73.3,10.311a10.961,10.961,0,0,1,.834-4.3A9.424,9.424,0,0,1,76.35,2.813,9.658,9.658,0,0,1,79.513.825,10.148,10.148,0,0,1,83.192.141,9.9,9.9,0,0,1,89.327,2.1a7.76,7.76,0,0,1,3,5.18H87.744a4.209,4.209,0,0,0-1.606-2.353,5.057,5.057,0,0,0-2.975-.878,4.73,4.73,0,0,0-3.645,1.689,6.922,6.922,0,0,0-1.5,4.576,7.037,7.037,0,0,0,1.51,4.619,4.734,4.734,0,0,0,3.66,1.732,4.514,4.514,0,0,0,4.58-3.231h4.579a8.064,8.064,0,0,1-3.066,5.191A9.9,9.9,0,0,1,83.164,20.567Zm-74.678,0a9.907,9.907,0,0,1-5.8-1.6A6.493,6.493,0,0,1,0,14.02H4.467C4.729,15.984,6.2,17.11,8.513,17.11c2.1,0,3.455-.9,3.455-2.3a1.733,1.733,0,0,0-.874-1.51,7.26,7.26,0,0,0-2.5-.878L6.631,12A9.442,9.442,0,0,1,1.984,9.918,4.784,4.784,0,0,1,.477,6.237a5.5,5.5,0,0,1,2.255-4.4A8.867,8.867,0,0,1,8.148.141a9.027,9.027,0,0,1,5.44,1.6A6.264,6.264,0,0,1,16.1,6.265H11.66C11.409,4.594,10.086,3.6,8.12,3.6a4.045,4.045,0,0,0-2.276.629,1.962,1.962,0,0,0-.927,1.619c0,1.116.743,1.66,2.837,2.079L9.946,8.4a10.4,10.4,0,0,1,4.745,2,5,5,0,0,1,1.774,3.983,5.452,5.452,0,0,1-2.42,4.608A9.7,9.7,0,0,1,8.485,20.567Zm146.126-.029a6.164,6.164,0,0,1-3.73-1.159,4.118,4.118,0,0,1-1.665-3.393c0-3.079,2.516-4.114,6.294-4.72l3.343-.534v-.2a2.09,2.09,0,0,0-.625-1.685,2.619,2.619,0,0,0-1.763-.506,2.476,2.476,0,0,0-2.753,2.079h-3.989a5.549,5.549,0,0,1,2.268-3.747,7.885,7.885,0,0,1,4.671-1.366c2.309,0,3.947.518,5.006,1.585a5.492,5.492,0,0,1,1.372,4.062l-.029,6.181c0,.512.033,1.407.113,3.091h-3.905l-.056-1.657A5.615,5.615,0,0,1,154.611,20.538Zm4.243-7.052c-3.884.482-5.507.909-5.507,2.3,0,1.057.9,1.713,2.361,1.713a2.9,2.9,0,0,0,3.146-3.034ZM39.784,20.538a6.164,6.164,0,0,1-3.73-1.159,4.118,4.118,0,0,1-1.665-3.393c0-3.079,2.516-4.114,6.294-4.72l3.343-.534v-.2A2.09,2.09,0,0,0,43.4,8.85a2.619,2.619,0,0,0-1.763-.506,2.475,2.475,0,0,0-2.753,2.079H34.9a5.549,5.549,0,0,1,2.268-3.747A7.885,7.885,0,0,1,41.835,5.31c2.309,0,3.947.518,5.006,1.585a5.492,5.492,0,0,1,1.372,4.062l-.028,6.181c0,.516.034,1.44.112,3.091H44.392l-.056-1.657A5.615,5.615,0,0,1,39.784,20.538Zm4.243-7.052c-3.884.482-5.507.909-5.507,2.3,0,1.057.9,1.713,2.36,1.713a2.9,2.9,0,0,0,3.147-3.034Zm143.71,6.771c-2.547,0-4.243-.678-4.243-3.989V8.794h-2.36V5.676h2.36V2.051h4.186V5.676h3.231V8.794h-3.231v6.49c0,1.491.494,1.742,1.6,1.742h1.63V20.2C189.928,20.257,189.1,20.257,187.737,20.257Zm-53.944,0c-2.547,0-4.243-.678-4.243-3.989V8.794h-2.36V5.676h2.36V2.051h4.186V5.676h3.231V8.794h-3.231v6.49c0,1.491.494,1.742,1.6,1.742h1.63V20.2C135.984,20.257,135.16,20.257,133.793,20.257Zm-17.728-.027h-4.271V5.676h4.13v1.77a5.2,5.2,0,0,1,4.411-2.107c3.375,0,5.31,2.12,5.31,5.816v9.075h-4.27V11.912a3.212,3.212,0,0,0-.678-2.156,2.414,2.414,0,0,0-1.879-.766c-1.331,0-2.753.915-2.753,3.484v7.755Zm-93.223,0h-4.27V0h4.27V7.249a5.276,5.276,0,0,1,4.27-1.91c3.375,0,5.31,2.12,5.31,5.816v9.075h-4.27V11.912a3.212,3.212,0,0,0-.678-2.156A2.414,2.414,0,0,0,25.6,8.991c-1.331,0-2.753.915-2.753,3.484v7.755Zm34.952,0H53.719L49.083,5.676h4.243l2.7,9.524,2.585-9.524h3.681L64.9,15.144,67.57,5.676h4.074L67.037,20.229H62.963l-2.585-9.188-2.585,9.188Zm85.72,0h-4.27V5.676h4.13V7.839A4.658,4.658,0,0,1,144.385,6.6a4.376,4.376,0,0,1,3.034-1.04,5.572,5.572,0,0,1,1.04.084V9.581a9.74,9.74,0,0,0-1.433-.084c-2.9,0-3.513,1.818-3.513,3.343v7.388ZM197.042,10.2a3.029,3.029,0,0,1-2.978-3.072,2.979,2.979,0,1,1,5.956,0A3.029,3.029,0,0,1,197.042,10.2Zm0-5.685a2.57,2.57,0,0,0-2.517,2.613,2.519,2.519,0,1,0,5.034,0A2.569,2.569,0,0,0,197.039,4.516Zm-.611,4.1h-.585V5.576H197.3c.66,0,1.054.347,1.054.929a.856.856,0,0,1-.619.863v.009c.028.048.047.081.076.132l.036.064.59,1.04h-.68l-.6-1.093c-.032-.059-.04-.07-.117-.07h-.6V8.613Zm0-2.548v.9h.8c.334,0,.525-.163.525-.447s-.2-.452-.525-.452Z" transform="translate(-0.02 0)" fill="#1a1919"/>
    </g>
  </g>
</svg>
